<svg baseProfile="full" height="28" version="1.1" viewBox="0 0 151 28" width="151" xmlns="http://www.w3.org/2000/svg" xmlns:ev="http://www.w3.org/2001/xml-events" xmlns:xlink="http://www.w3.org/1999/xlink"><defs /><g><path d="M14.817120622568094 27.782101167315176Q13.58236057068742 24.767833981841765 12.365758754863815 21.78988326848249Q11.149156939040209 18.811932555123217 9.914396887159533 15.833981841763944Q9.623865110246435 15.143968871595332 9.169909208819716 13.891050583657588Q8.715953307392997 12.638132295719846 8.225680933852141 11.00389105058366Q7.735408560311285 9.369649805447473 7.335927367055772 7.626459143968873Q7.408560311284047 9.660181582360572 7.444876783398184 11.457846952010378Q7.481193255512323 13.255512321660182 7.444876783398184 14.889753566796369Q7.444876783398184 15.688715953307394 7.444876783398184 16.523994811932557Q7.444876783398184 17.35927367055772 7.426718547341116 18.176394293125814Q7.408560311284047 18.993514915693908 7.408560311284047 19.810635538261998Q7.408560311284047 20.627756160830092 7.408560311284047 21.463035019455255Q7.408560311284047 22.443579766536967 7.354085603112841 23.351491569390404Q7.299610894941635 24.259403372243842 7.22697795071336 24.731517509727627Q7.844357976653697 24.658884565499353 8.734111543450066 24.640726329442284Q9.623865110246435 24.622568093385215 9.987029831387808 24.622568093385215V27.418936446173802H1.706874189364462V25.02204928664073Q2.542153047989624 24.985732814526592 3.1050583657587554 24.804150453955906Q3.667963683527886 24.622568093385215 3.976653696498055 23.96887159533074Q4.285343709468224 23.315175097276267 4.285343709468224 21.862516212710766L4.503242542153048 7.953307392996109Q4.539559014267186 6.972762645914397 4.575875486381324 6.06485084306096Q4.612191958495461 5.156939040207522 4.648508430609598 4.6848249027237365Q4.067444876783399 4.721141374837874 3.1958495460440988 4.739299610894943Q2.324254215304799 4.757457846952011 1.9247730220492867 4.793774319066149V1.9974059662775616H9.95071335927367L15.434500648508433 16.051880674448768Q15.761348897535669 16.88715953307393 16.16083009079118 17.994811932555123Q16.560311284046694 19.10246433203632 16.92347600518807 20.137483787289238Q17.286640726329445 21.172503242542156 17.46822308690013 21.78988326848249H17.50453955901427Q17.976653696498055 20.51880674448768 18.376134889753565 19.320363164721144Q18.77561608300908 18.121919584954604 19.21141374837873 16.996108949416346Q20.627756160830092 13.219195849546045 22.025940337224384 9.478599221789885Q23.42412451361868 5.738002594033723 24.84046692607004 1.9974059662775616H33.2295719844358V4.394293125810634Q32.43060959792478 4.430609597924775 31.81322957198444 4.612191958495462Q31.1958495460441 4.793774319066149 30.887159533073934 5.429312581063554Q30.578469520103763 6.06485084306096 30.6147859922179 7.553826199740598L31.159533073929964 21.463035019455255Q31.23216601815824 22.443579766536967 31.159533073929964 23.351491569390404Q31.08690012970169 24.259403372243842 31.014267185473415 24.731517509727627Q31.63164721141375 24.658884565499353 32.52140077821012 24.640726329442284Q33.41115434500649 24.622568093385215 33.77431906614786 24.622568093385215V27.418936446173802H23.67833981841764V25.02204928664073Q24.513618677042803 24.985732814526592 25.112840466926073 24.804150453955906Q25.71206225680934 24.622568093385215 26.020752269779507 23.96887159533074Q26.329442282749678 23.315175097276267 26.256809338521403 21.862516212710766L25.966277561608305 14.16342412451362Q25.966277561608305 13.72762645914397 25.893644617380026 12.656290531776914Q25.82101167315175 11.584954604409859 25.766536964980546 10.295719844357977Q25.71206225680934 9.006485084306096 25.675745784695202 7.880674448767834Q25.56679636835279 8.134889753566796 25.457846952010378 8.37094682230869Q25.348897535667966 8.607003891050585 25.27626459143969 8.861219195849547L18.194552529182882 27.782101167315176Z M44.30609597924773 28.000000000000004Q42.12710765239949 28.000000000000004 40.80155642023347 27.16472114137484Q39.47600518806745 26.329442282749678 38.87678339818418 24.54993514915694Q38.277561608300914 22.770428015564203 38.277561608300914 19.974059662775616V15.797665369649806Q38.277561608300914 15.143968871595332 38.31387808041505 14.2905317769131Q38.35019455252919 13.43709468223087 38.386511024643326 12.638132295719846Q37.80544747081712 12.674448767833983 37.02464332036317 12.692607003891052Q36.24383916990921 12.71076523994812 35.8443579766537 12.747081712062258V9.987029831387808H36.20752269779507Q38.4591439688716 9.987029831387808 39.766536964980546 9.623865110246433Q41.0739299610895 9.260700389105057 41.43709468223087 8.897535667963684H43.43450064850843V20.010376134889754Q43.43450064850843 22.370946822308692 44.05188067444877 23.514915693904022Q44.66926070038911 24.658884565499353 46.0129701686122 24.658884565499353Q46.95719844357977 24.658884565499353 47.91958495460442 24.132295719844358Q48.88197146562906 23.605706874189366 49.49935149156939 22.915693904020756V15.797665369649806Q49.49935149156939 15.143968871595332 49.53566796368353 14.2905317769131Q49.57198443579767 13.43709468223087 49.64461738002594 12.638132295719846Q49.063553826199744 12.674448767833983 48.28274967574579 12.692607003891052Q47.50194552529183 12.71076523994812 47.10246433203632 12.747081712062258V9.987029831387808H47.974059662775616Q49.68093385214008 9.987029831387808 50.98832684824903 9.605706874189364Q52.295719844357976 9.22438391699092 52.658884565499356 8.897535667963684H54.65629053177692V21.571984435797667Q54.65629053177692 22.08041504539559 54.61997405966278 23.006485084306096Q54.58365758754864 23.932555123216602 54.51102464332037 24.767833981841765Q55.092088197146566 24.69520103761349 55.80025940337225 24.67704280155642Q56.50843060959793 24.658884565499353 56.871595330739304 24.658884565499353V27.418936446173802H49.971465629053185Q49.93514915693905 26.946822308690017 49.88067444876784 26.47470817120623Q49.826199740596635 26.002594033722442 49.75356679636836 25.530479896238653Q48.627756160830096 26.474708171206228 47.33852140077822 27.237354085603116Q46.049286640726336 28.000000000000004 44.30609597924773 28.000000000000004Z M59.01426718547342 27.418936446173802V24.804150453955902L67.36705577172503 13.800259403372245Q67.98443579766538 13.001297016861221 68.52918287937744 12.383916990920884Q69.0739299610895 11.766536964980546 69.21919584954605 11.621271076523996L64.3164721141375 11.69390402075227Q63.48119325551233 11.69390402075227 62.95460440985734 12.329442282749676Q62.42801556420234 12.964980544747082 62.101167315175104 13.981841763942931Q61.77431906614787 14.998702983138783 61.59273670557718 16.269779507133592H59.34111543450066L59.84954604409858 9.260700389105057H74.55771725032426V11.548638132295721L66.4591439688716 22.55252918287938Q65.95071335927368 23.242542153047992 65.44228274967575 23.787289234760053Q64.93385214007783 24.332036316472117 64.42542153047991 24.767833981841765L69.54604409857329 24.913099870298318Q70.70817120622569 24.949416342412455 71.38002594033723 24.332036316472117Q72.05188067444878 23.714656290531778 72.41504539559016 22.643320363164722Q72.77821011673153 21.571984435797667 72.95979247730222 20.300907911802856H75.21141374837873L74.66666666666667 27.418936446173802Z M96.96498054474709 10.132295719844358Q96.4928664072633 7.118028534370946 94.94941634241246 5.592736705577172Q93.40596627756162 4.067444876783398 90.863813229572 4.031128404669261Q88.97535667963685 4.031128404669261 87.55901426718549 4.902723735408561Q86.14267185473412 5.774319066147861 85.21660181582362 7.22697795071336Q84.29053177691311 8.67963683527886 83.8365758754864 10.531776913099872Q83.38261997405968 12.383916990920882 83.38261997405968 14.345006485084307Q83.38261997405968 17.46822308690013 84.27237354085605 19.883268482490273Q85.16212710765241 22.298313878080418 86.86900129701687 23.67833981841764Q88.57587548638134 25.058365758754867 91.00907911802855 25.058365758754867Q93.2970168612192 25.058365758754867 95.54863813229574 23.878080415045396Q97.80025940337225 22.69779507133593 99.32555123216603 20.591439688715955L101.06874189364463 22.189364461738005Q99.2892347600519 24.622568093385215 97.32814526588848 25.875486381322958Q95.36705577172505 27.128404669260703 93.49675745784697 27.56420233463035Q91.62645914396889 28.000000000000004 90.13748378728926 28.000000000000004Q87.34111543450067 28.000000000000004 85.05317769131 27.001297016861223Q82.76523994811934 26.002594033722442 81.11284046692609 24.241245136186773Q79.46044098573283 22.479896238651104 78.57068741893646 20.137483787289234Q77.68093385214009 17.795071335927368 77.68093385214009 15.071335927367057Q77.68093385214009 12.601815823605708 78.47989623865112 10.168612191958497Q79.27885862516214 7.735408560311285 80.85862516212713 5.756160830090792Q82.43839169909211 3.776913099870299 84.83527885862517 2.5966277561608297Q87.23216601815825 1.4163424124513604 90.39169909208822 1.4163424124513604Q91.80804150453957 1.4163424124513604 93.49675745784697 1.870298313878079Q95.18547341115436 2.324254215304798 96.674448767834 3.195849546044098L96.52918287937744 1.6705577172503254H99.32555123216603V10.132295719844358Z M112.98054474708172 27.418936446173802Q112.90791180285345 26.910505836575876 112.88975356679637 26.56549935149157Q112.87159533073931 26.220492866407266 112.83527885862517 25.748378728923477Q111.6005188067445 26.983138780804154 110.22049286640728 27.491569390402077Q108.84046692607005 28.000000000000004 107.4241245136187 28.000000000000004Q105.09987029831389 28.000000000000004 103.79247730220493 26.61997405966278Q102.48508430609598 25.239948119325554 102.48508430609598 23.169909208819718Q102.48508430609598 21.426718547341117 103.37483787289236 20.191958495460444Q104.26459143968873 18.95719844357977 105.7354085603113 18.176394293125814Q107.20622568093387 17.395590142671857 109.00389105058366 16.977950713359277Q110.80155642023347 16.560311284046694 112.61738002594035 16.48767833981842V14.59922178988327Q112.61738002594035 13.654993514915695 112.38132295719845 12.892347600518807Q112.14526588845656 12.129701686121921 111.58236057068743 11.69390402075227Q111.0194552529183 11.258106355382619 110.00259403372245 11.29442282749676Q109.31258106355384 11.330739299610897 108.65888456549936 11.584954604409859Q108.00518806744489 11.83916990920882 107.5330739299611 12.311284046692608Q107.8236057068742 12.638132295719846 107.89623865110248 13.019455252918288Q107.96887159533075 13.400778210116732 107.96887159533075 13.691309987029832Q107.96887159533075 14.417639429312581 107.38780804150454 15.198443579766538Q106.80674448767834 15.979247730220495 105.53566796368354 15.942931258106357Q104.44617380025942 15.906614785992218 103.8651102464332 15.18028534370947Q103.284046692607 14.45395590142672 103.284046692607 13.473411154345008Q103.284046692607 12.020752269779509 104.31906614785993 10.949416342412452Q105.35408560311285 9.878080415045396 107.09727626459144 9.278858625162128Q108.84046692607005 8.67963683527886 110.94682230869003 8.67963683527886Q114.14267185473412 8.67963683527886 115.90402075226979 10.332036316472115Q117.66536964980546 11.98443579766537 117.66536964980546 15.61608300907912Q117.66536964980546 16.850843060959793 117.66536964980546 17.722438391699093Q117.66536964980546 18.594033722438393 117.64721141374838 19.465629053177693Q117.62905317769132 20.337224383916993 117.62905317769132 21.571984435797667Q117.62905317769132 22.08041504539559 117.59273670557718 23.006485084306096Q117.55642023346304 23.932555123216602 117.48378728923477 24.767833981841765Q118.1011673151751 24.69520103761349 118.79118028534371 24.67704280155642Q119.48119325551232 24.658884565499353 119.84435797665371 24.658884565499353V27.418936446173802ZM112.58106355382621 19.066147859922182Q111.56420233463037 19.175097276264594 110.65629053177693 19.429312581063556Q109.74837872892348 19.683527885862517 109.07652399481194 20.119325551232166Q108.4046692607004 20.555123216601817 108.02334630350197 21.172503242542156Q107.64202334630352 21.78988326848249 107.64202334630352 22.55252918287938Q107.67833981841765 23.56939040207523 108.29571984435799 24.005188067444877Q108.91309987029832 24.44098573281453 109.71206225680935 24.44098573281453Q110.5473411154345 24.44098573281453 111.27367055771725 24.07782101167315Q112.00000000000001 23.714656290531778 112.58106355382621 23.13359273670558Q112.58106355382621 22.770428015564203 112.58106355382621 22.425421530479895Q112.58106355382621 22.08041504539559 112.58106355382621 21.717250324254216Q112.58106355382621 21.063553826199744 112.58106355382621 20.3916990920882Q112.58106355382621 19.719844357976655 112.58106355382621 19.066147859922182Z M124.16601815823607 8.20752269779507Q124.16601815823607 3.8132295719844365 126.09079118028535 1.9066147859922182Q128.01556420233464 0.0 131.284046692607 0.0Q132.99092088197148 0.0 134.00778210116732 0.49027237354085607Q135.02464332036317 0.9805447470817121 135.46044098573282 1.706874189364461Q135.89623865110246 2.43320363164721 135.89623865110246 3.195849546044098Q135.89623865110246 4.140077821011673 135.31517509727627 4.866407263294423Q134.73411154345007 5.592736705577174 133.64461738002595 5.629053177691311Q132.59143968871598 5.665369649805449 132.01037613488978 5.0661478599221805Q131.42931258106356 4.466926070038912 131.42931258106356 3.559014267185475Q131.42931258106356 3.3774319066147847 131.44747081712063 3.195849546044098Q131.4656290531777 3.014267185473411 131.50194552529183 2.8326848249027243Q131.32036316472116 2.6511024643320376 131.08430609597926 2.5966277561608315Q130.84824902723736 2.5421530479896255 130.66666666666669 2.5421530479896255Q130.0856031128405 2.5421530479896255 129.75875486381324 2.8871595330739304Q129.43190661478602 3.2321660181582352 129.3229571984436 3.74059662775616Q129.2140077821012 4.249027237354085 129.2140077821012 4.793774319066149V9.260700389105057H133.28145265888458V12.057068741893646L129.25032425421531 12.166018158236058L129.28664072632947 21.499351491569392Q129.28664072632947 22.007782101167315 129.25032425421534 22.97016861219196Q129.2140077821012 23.932555123216602 129.14137483787292 24.767833981841765Q129.75875486381324 24.69520103761349 130.53955901426718 24.67704280155642Q131.32036316472116 24.658884565499353 131.68352788586253 24.658884565499353V27.418936446173802H121.98702983138782V25.058365758754867Q123.00389105058368 25.058365758754867 123.45784695201039 24.658884565499356Q123.91180285343711 24.259403372243842 124.03891050583658 23.514915693904022Q124.16601815823607 22.770428015564203 124.16601815823607 21.82619974059663V12.238651102464333L121.51491569390403 12.27496757457847V9.260700389105057H124.16601815823607Z M143.92217898832686 28.000000000000004Q141.27107652399482 28.000000000000004 139.23735408560313 26.819714656290536Q137.20363164721144 25.639429312581065 136.07782101167317 23.478599221789885Q134.95201037613492 21.317769130998705 134.95201037613492 18.37613488975357Q134.95201037613492 15.833981841763944 136.07782101167317 13.618677042801558Q137.20363164721144 11.403372243839172 139.2555123216602 10.041504539559016Q141.30739299610897 8.67963683527886 144.0311284046693 8.67963683527886Q145.55642023346306 8.67963683527886 147.00907911802855 9.097276264591441Q148.46173800259405 9.514915693904022 149.64202334630352 10.531776913099872Q150.822308690013 11.548638132295721 151.53047989623866 13.291828793774322Q152.23865110246436 15.03501945525292 152.2023346303502 17.64980544747082L140.29053177691313 17.867704280155642Q140.29053177691313 19.828793774319067 140.78080415045397 21.39040207522698Q141.27107652399482 22.952010376134893 142.3968871595331 23.859922178988327Q143.52269779507137 24.767833981841765 145.4111543450065 24.767833981841765Q146.13748378728926 24.767833981841765 147.06355382619978 24.513618677042803Q147.98962386511027 24.259403372243842 148.95201037613492 23.660181582360572Q149.91439688715957 23.060959792477306 150.7496757457847 22.044098573281453L152.3839169909209 23.56939040207523Q151.07652399481196 25.42153047989624 149.58754863813232 26.383916990920884Q148.09857328145267 27.346303501945528 146.6277561608301 27.673151750972764Q145.15693904020753 28.000000000000004 143.92217898832686 28.000000000000004ZM140.50843060959795 15.325551232166019H147.19066147859925Q147.1543450064851 13.800259403372245 146.77302204928668 12.910505836575876Q146.39169909208823 12.020752269779509 145.73800259403373 11.621271076523996Q145.08430609597926 11.221789883268482 144.21271076523996 11.221789883268482Q142.61478599221792 11.221789883268482 141.7068741893645 12.365758754863814Q140.79896238651105 13.509727626459146 140.50843060959795 15.325551232166019Z " fill="rgb(0,0,0)" transform="translate(-1.706874189364462, 0)" /></g></svg>